<svg id="Laag_2" data-name="Laag 2" xmlns="http://www.w3.org/2000/svg" viewBox="0 0 841.89 173.89"><defs><style>.cls-1{fill:#1d1d1b;}</style></defs><path class="cls-1" d="M73.62,108.49V65.4a11.08,11.08,0,0,1,5.76-10.05q5.78-3.48,19.54-3.48h42.81q13.77,0,19.54,3.48A11.08,11.08,0,0,1,167,65.4v43.09a11,11,0,0,1-5.76,10.15Q155.49,122,141.73,122H98.92q-13.77,0-19.54-3.38A11,11,0,0,1,73.62,108.49Zm29.88.19h33.65a6.73,6.73,0,0,0,4.17-1.16,3.69,3.69,0,0,0,1.52-3.09v-35a3.69,3.69,0,0,0-1.52-3.09,6.73,6.73,0,0,0-4.17-1.16H103.5a6.71,6.71,0,0,0-4.17,1.16,3.67,3.67,0,0,0-1.52,3.09v35a3.67,3.67,0,0,0,1.52,3.09A6.71,6.71,0,0,0,103.5,108.68Z"/><path class="cls-1" d="M258.73,88.59V80.75h66.43v7.84H300.55V122h-17.2V88.59Z"/><path class="cls-1" d="M403.56,114.17V122H355.12q-9.8,0-13.89-2c-2.74-1.33-4.1-3.32-4.1-6V88.71c0-2.58,1.36-4.55,4.1-5.91s7.36-2,13.89-2h48.44v7.84H358.38a5.53,5.53,0,0,0-3,.69,2.06,2.06,0,0,0-1.08,1.81v6.37h33.91v7.85H354.33v6.36a2.06,2.06,0,0,0,1.08,1.82,5.63,5.63,0,0,0,3,.68Z"/><path class="cls-1" d="M436.28,114.17l45.18-.11v8H433q-9.79,0-13.89-2c-2.74-1.33-4.1-3.32-4.1-6V80.75h17.2v30.92a2.06,2.06,0,0,0,1.08,1.82A5.6,5.6,0,0,0,436.28,114.17Z"/><path class="cls-1" d="M199.12,89.28A2.05,2.05,0,0,0,198,91.09V122h-17.2V88.71c0-2.66,1.37-4.64,4.1-6s7.37-2,13.89-2h48.44v8l-45.17-.12A5.48,5.48,0,0,0,199.12,89.28Z"/><path class="cls-1" d="M492.92,80.75h17.2V122h-17.2Z"/><path class="cls-1" d="M542.85,114.17h23.92a5.63,5.63,0,0,0,3-.68,2.06,2.06,0,0,0,1.08-1.82V80.75H588v33.31q0,4-4.1,6c-2.74,1.32-7.36,2-13.89,2H539.58q-9.78,0-13.89-2t-4.1-6V80.75h17.2v30.92a2.05,2.05,0,0,0,1.09,1.82A5.58,5.58,0,0,0,542.85,114.17Z"/><path class="cls-1" d="M644.67,114.17a5.57,5.57,0,0,0,3-.68,2.05,2.05,0,0,0,1.09-1.82v-4.09c-.33-1.52-1.68-2.27-4.05-2.27H617.48q-9.78,0-13.89-2t-4.1-6V88.71q0-3.87,4.1-5.91t13.89-2h48.44v7.84H620.74a5.47,5.47,0,0,0-3,.69,2.05,2.05,0,0,0-1.09,1.81V95a2.05,2.05,0,0,0,1.09,1.82,5.57,5.57,0,0,0,3,.68h27.19c6.53,0,11.15.69,13.89,2.05s4.1,3.33,4.1,5.91v8.64q0,4-4.1,6c-2.74,1.32-7.36,2-13.89,2H599.49v-7.85Z"/><path class="cls-1" d="M701.82,122H676.66l66.73-58h24.88Z"/><path class="cls-1" d="M676.66,64h24.89l66.72,58H743.11Z"/></svg>